<?xml version="1.0" standalone="no"?>
<!DOCTYPE svg PUBLIC "-//W3C//DTD SVG 20010904//EN"
 "http://www.w3.org/TR/2001/REC-SVG-20010904/DTD/svg10.dtd">
<svg version="1.0" xmlns="http://www.w3.org/2000/svg"
 width="520.000000pt" height="520.000000pt" viewBox="0 0 520.000000 520.000000"
 preserveAspectRatio="xMidYMid meet">
<metadata>
Created by potrace 1.14, written by Peter Selinger 2001-2017
</metadata>
<g transform="translate(0.000000,520.000000) scale(0.100000,-0.100000)"
fill="#000000" stroke="none">
<path d="M2059 5176 c-2 -2 -44 -7 -94 -10 -104 -8 -199 -47 -274 -112 -80
-69 -202 -282 -296 -514 -62 -154 -73 -178 -105 -225 -33 -50 -42 -73 -81
-219 -18 -66 -40 -127 -50 -137 -9 -9 -41 -20 -70 -24 -30 -3 -65 -8 -79 -10
-14 -2 -74 -6 -135 -9 -377 -21 -389 -23 -400 -56 -12 -38 43 -110 129 -169
75 -52 248 -126 434 -186 6 -3 12 -21 13 -42 0 -21 2 -51 4 -68 2 -16 7 -54
10 -84 12 -96 41 -249 57 -301 6 -19 12 -91 13 -160 1 -69 5 -138 9 -155 4
-16 18 -86 31 -155 18 -93 35 -147 65 -208 45 -91 44 -79 18 -267 -6 -44 -12
-107 -12 -140 l-1 -60 42 0 c24 0 43 -4 44 -9 1 -4 -27 -45 -62 -89 -99 -126
-159 -216 -153 -232 6 -15 80 -72 214 -164 104 -71 270 -207 270 -221 0 -5
-24 -16 -52 -26 -237 -78 -419 -176 -526 -283 -114 -115 -264 -487 -297 -736
-3 -27 -9 -62 -11 -77 l-6 -28 1861 0 1861 0 0 25 c0 41 -29 174 -56 254 -14
41 -21 77 -17 82 4 4 42 16 84 28 89 24 210 77 272 120 120 82 229 234 290
401 15 42 21 90 24 207 5 136 3 159 -17 224 -67 223 -209 392 -403 479 -91 41
-160 54 -277 53 -131 -1 -212 -20 -336 -78 -105 -49 -114 -48 -133 6 -9 27 -8
31 15 39 19 7 23 15 19 32 -5 25 -21 177 -30 304 -6 76 -5 84 24 141 51 100
92 284 116 523 4 36 22 113 40 171 33 105 50 179 60 270 3 26 8 56 10 67 2 12
7 63 10 114 4 51 10 96 14 99 3 3 35 18 71 33 114 48 133 57 244 113 162 81
257 147 242 171 -11 18 -97 28 -321 37 -283 11 -371 21 -394 44 -10 10 -35 79
-56 155 -25 89 -49 153 -69 183 -59 88 -69 108 -128 247 -177 417 -263 526
-473 596 -137 46 -405 45 -554 0 -100 -31 -125 -31 -260 2 -99 25 -153 32
-252 35 -69 1 -128 1 -130 -1z"/>
</g>
</svg>
